<mxfile host="Electron" agent="Mozilla/5.0 (Windows NT 10.0; Win64; x64) AppleWebKit/537.36 (KHTML, like Gecko) draw.io/27.0.5 Chrome/134.0.6998.205 Electron/35.3.0 Safari/537.36" version="27.0.5">
  <diagram name="Page-1" id="6sOmhfDIeluq0p9DrRzR">
    <mxGraphModel dx="2745" dy="2413" grid="1" gridSize="10" guides="1" tooltips="1" connect="1" arrows="0" fold="1" page="1" pageScale="1" pageWidth="850" pageHeight="1100" background="#ffffff" math="0" shadow="0">
      <root>
        <mxCell id="0" />
        <mxCell id="1" parent="0" />
        <mxCell id="Jj5iCGX9umXXi5OokUe8-1" value="" style="rounded=0;whiteSpace=wrap;dashed=0;strokeWidth=2;labelBackgroundColor=none;html=1;" vertex="1" parent="1">
          <mxGeometry x="-110" y="-30" width="1710" height="1280" as="geometry" />
        </mxCell>
        <mxCell id="yEV34xs6mezx_GCeeAao-20" value="" style="rounded=0;whiteSpace=wrap;dashed=0;strokeWidth=2;labelBackgroundColor=none;html=1;" parent="1" vertex="1">
          <mxGeometry x="887" y="12" width="310" height="270" as="geometry" />
        </mxCell>
        <mxCell id="yEV34xs6mezx_GCeeAao-12" value="" style="rounded=0;whiteSpace=wrap;dashed=0;strokeWidth=2;labelBackgroundColor=none;html=1;" parent="1" vertex="1">
          <mxGeometry x="555" y="10" width="310" height="270" as="geometry" />
        </mxCell>
        <mxCell id="OBF6jRSywHmvWaEwPD6J-11" value="" style="rounded=0;whiteSpace=wrap;dashed=0;strokeWidth=2;labelBackgroundColor=none;html=1;" parent="1" vertex="1">
          <mxGeometry x="225" y="10" width="310" height="270" as="geometry" />
        </mxCell>
        <mxCell id="iy7uY4TQuZhiIkR0IRl_-18" value="" style="rounded=0;whiteSpace=wrap;dashed=0;strokeWidth=2;labelBackgroundColor=none;html=1;" parent="1" vertex="1">
          <mxGeometry x="-70" y="380" width="1620" height="830" as="geometry" />
        </mxCell>
        <mxCell id="iy7uY4TQuZhiIkR0IRl_-8" value="" style="rounded=0;whiteSpace=wrap;dashed=0;strokeWidth=2;labelBackgroundColor=none;html=1;" parent="1" vertex="1">
          <mxGeometry x="7" y="819.5" width="466" height="330" as="geometry" />
        </mxCell>
        <mxCell id="yEV34xs6mezx_GCeeAao-63" value="" style="rounded=0;whiteSpace=wrap;dashed=0;strokeWidth=2;labelBackgroundColor=none;html=1;" parent="1" vertex="1">
          <mxGeometry x="524" y="760" width="400" height="210" as="geometry" />
        </mxCell>
        <mxCell id="yEV34xs6mezx_GCeeAao-53" value="" style="rounded=0;whiteSpace=wrap;dashed=0;strokeWidth=2;labelBackgroundColor=none;html=1;" parent="1" vertex="1">
          <mxGeometry x="1080" y="556.5" width="400" height="313.5" as="geometry" />
        </mxCell>
        <mxCell id="yEV34xs6mezx_GCeeAao-28" value="" style="rounded=0;whiteSpace=wrap;dashed=0;strokeWidth=2;labelBackgroundColor=none;html=1;" parent="1" vertex="1">
          <mxGeometry x="500" y="410" width="400" height="290" as="geometry" />
        </mxCell>
        <mxCell id="yEV34xs6mezx_GCeeAao-36" value="" style="edgeStyle=orthogonalEdgeStyle;rounded=0;orthogonalLoop=1;jettySize=auto;labelBackgroundColor=none;html=1;" parent="1" source="OBF6jRSywHmvWaEwPD6J-11" target="yEV34xs6mezx_GCeeAao-33" edge="1">
          <mxGeometry relative="1" as="geometry">
            <Array as="points">
              <mxPoint x="380" y="330" />
              <mxPoint x="819" y="330" />
            </Array>
          </mxGeometry>
        </mxCell>
        <mxCell id="yEV34xs6mezx_GCeeAao-43" value="" style="edgeStyle=orthogonalEdgeStyle;rounded=0;orthogonalLoop=1;jettySize=auto;exitX=0.512;exitY=0.605;exitDx=0;exitDy=0;exitPerimeter=0;labelBackgroundColor=none;html=1;" parent="1" source="yEV34xs6mezx_GCeeAao-7" target="yEV34xs6mezx_GCeeAao-29" edge="1">
          <mxGeometry relative="1" as="geometry">
            <Array as="points">
              <mxPoint x="380" y="210" />
              <mxPoint x="380" y="330" />
              <mxPoint x="590" y="330" />
            </Array>
          </mxGeometry>
        </mxCell>
        <mxCell id="OBF6jRSywHmvWaEwPD6J-12" value="Factory 3" style="text;strokeColor=none;fillColor=none;align=center;verticalAlign=middle;whiteSpace=wrap;rounded=0;fontStyle=1;labelBackgroundColor=none;html=1;" parent="1" vertex="1">
          <mxGeometry x="350" y="20" width="60" height="20" as="geometry" />
        </mxCell>
        <mxCell id="OBF6jRSywHmvWaEwPD6J-19" value="Data Ingestion &amp;amp; Processing" style="text;strokeColor=none;fillColor=none;align=center;verticalAlign=middle;whiteSpace=wrap;rounded=0;fontStyle=1;labelBackgroundColor=none;html=1;" parent="1" vertex="1">
          <mxGeometry x="610" y="420" width="210" height="20" as="geometry" />
        </mxCell>
        <mxCell id="yEV34xs6mezx_GCeeAao-3" value="&lt;font style=&quot;color: rgb(0, 0, 0);&quot;&gt;Client&lt;/font&gt;" style="outlineConnect=0;dashed=0;verticalLabelPosition=bottom;verticalAlign=top;align=center;shape=mxgraph.aws3.management_console;fillColor=#0050ef;labelBackgroundColor=none;strokeColor=#001DBC;fontColor=#ffffff;html=1;whiteSpace=wrap;" parent="1" vertex="1">
          <mxGeometry x="262" y="60" width="63" height="63" as="geometry" />
        </mxCell>
        <mxCell id="yEV34xs6mezx_GCeeAao-5" value="&lt;font style=&quot;color: rgb(0, 0, 0);&quot;&gt;Client&lt;/font&gt;" style="outlineConnect=0;dashed=0;verticalLabelPosition=bottom;verticalAlign=top;align=center;shape=mxgraph.aws3.management_console;fillColor=#0050ef;labelBackgroundColor=none;strokeColor=#001DBC;fontColor=#ffffff;html=1;whiteSpace=wrap;" parent="1" vertex="1">
          <mxGeometry x="410" y="60" width="63" height="63" as="geometry" />
        </mxCell>
        <mxCell id="yEV34xs6mezx_GCeeAao-7" value="" style="points=[];aspect=fixed;align=center;shadow=0;dashed=0;fillColor=light-dark(#f0a400, #6db2ff);strokeColor=light-dark(#f0a400, #b2cbff);shape=mxgraph.alibaba_cloud.apigateway;fontColor=#ffffff;labelBackgroundColor=none;html=1;whiteSpace=wrap;" parent="1" vertex="1">
          <mxGeometry x="352" y="180" width="51.8" height="50" as="geometry" />
        </mxCell>
        <mxCell id="yEV34xs6mezx_GCeeAao-9" value="Factory Gateway" style="text;align=center;verticalAlign=middle;resizable=0;points=[];autosize=1;strokeColor=none;fillColor=none;labelBackgroundColor=none;html=1;" parent="1" vertex="1">
          <mxGeometry x="325" y="230" width="110" height="30" as="geometry" />
        </mxCell>
        <mxCell id="yEV34xs6mezx_GCeeAao-10" value="" style="edgeStyle=orthogonalEdgeStyle;rounded=0;orthogonalLoop=1;jettySize=auto;exitX=0.5;exitY=1;exitDx=0;exitDy=0;exitPerimeter=0;entryX=0.417;entryY=0.416;entryDx=0;entryDy=0;entryPerimeter=0;labelBackgroundColor=none;html=1;" parent="1" source="yEV34xs6mezx_GCeeAao-5" target="yEV34xs6mezx_GCeeAao-7" edge="1">
          <mxGeometry relative="1" as="geometry" />
        </mxCell>
        <mxCell id="yEV34xs6mezx_GCeeAao-11" value="" style="edgeStyle=orthogonalEdgeStyle;rounded=0;orthogonalLoop=1;jettySize=auto;entryX=0.417;entryY=0.352;entryDx=0;entryDy=0;entryPerimeter=0;labelBackgroundColor=none;html=1;" parent="1" source="yEV34xs6mezx_GCeeAao-3" target="yEV34xs6mezx_GCeeAao-7" edge="1">
          <mxGeometry relative="1" as="geometry" />
        </mxCell>
        <mxCell id="yEV34xs6mezx_GCeeAao-35" value="" style="edgeStyle=orthogonalEdgeStyle;rounded=0;orthogonalLoop=1;jettySize=auto;labelBackgroundColor=none;html=1;" parent="1" source="yEV34xs6mezx_GCeeAao-12" target="yEV34xs6mezx_GCeeAao-33" edge="1">
          <mxGeometry relative="1" as="geometry">
            <Array as="points">
              <mxPoint x="710" y="330" />
              <mxPoint x="819" y="330" />
            </Array>
          </mxGeometry>
        </mxCell>
        <mxCell id="yEV34xs6mezx_GCeeAao-44" value="" style="edgeStyle=orthogonalEdgeStyle;rounded=0;orthogonalLoop=1;jettySize=auto;entryX=0.5;entryY=0;entryDx=0;entryDy=0;exitX=0.557;exitY=0.605;exitDx=0;exitDy=0;exitPerimeter=0;labelBackgroundColor=none;html=1;" parent="1" source="yEV34xs6mezx_GCeeAao-16" target="yEV34xs6mezx_GCeeAao-29" edge="1">
          <mxGeometry relative="1" as="geometry">
            <Array as="points">
              <mxPoint x="711" y="330" />
              <mxPoint x="590" y="330" />
            </Array>
          </mxGeometry>
        </mxCell>
        <mxCell id="yEV34xs6mezx_GCeeAao-13" value="Factory 3" style="text;strokeColor=none;fillColor=none;align=center;verticalAlign=middle;whiteSpace=wrap;rounded=0;fontStyle=1;labelBackgroundColor=none;html=1;" parent="1" vertex="1">
          <mxGeometry x="680" y="20" width="60" height="20" as="geometry" />
        </mxCell>
        <mxCell id="yEV34xs6mezx_GCeeAao-14" value="&lt;font style=&quot;color: rgb(0, 0, 0);&quot;&gt;Client&lt;/font&gt;" style="outlineConnect=0;dashed=0;verticalLabelPosition=bottom;verticalAlign=top;align=center;shape=mxgraph.aws3.management_console;fillColor=#0050ef;labelBackgroundColor=none;strokeColor=#001DBC;fontColor=#ffffff;html=1;whiteSpace=wrap;" parent="1" vertex="1">
          <mxGeometry x="592" y="60" width="63" height="63" as="geometry" />
        </mxCell>
        <mxCell id="yEV34xs6mezx_GCeeAao-15" value="&lt;font style=&quot;color: rgb(0, 0, 0);&quot;&gt;Client&lt;/font&gt;" style="outlineConnect=0;dashed=0;verticalLabelPosition=bottom;verticalAlign=top;align=center;shape=mxgraph.aws3.management_console;fillColor=#0050ef;labelBackgroundColor=none;strokeColor=#001DBC;fontColor=#ffffff;html=1;whiteSpace=wrap;" parent="1" vertex="1">
          <mxGeometry x="740" y="60" width="63" height="63" as="geometry" />
        </mxCell>
        <mxCell id="yEV34xs6mezx_GCeeAao-16" value="" style="points=[];aspect=fixed;align=center;shadow=0;dashed=0;fillColor=light-dark(#f0a400, #6db2ff);strokeColor=light-dark(#f0a400, #b2cbff);shape=mxgraph.alibaba_cloud.apigateway;fontColor=#ffffff;labelBackgroundColor=none;html=1;whiteSpace=wrap;" parent="1" vertex="1">
          <mxGeometry x="682" y="180" width="51.8" height="50" as="geometry" />
        </mxCell>
        <mxCell id="yEV34xs6mezx_GCeeAao-17" value="Factory Gateway" style="text;align=center;verticalAlign=middle;resizable=0;points=[];autosize=1;strokeColor=none;fillColor=none;labelBackgroundColor=none;html=1;" parent="1" vertex="1">
          <mxGeometry x="655" y="230" width="110" height="30" as="geometry" />
        </mxCell>
        <mxCell id="yEV34xs6mezx_GCeeAao-18" value="" style="edgeStyle=orthogonalEdgeStyle;rounded=0;orthogonalLoop=1;jettySize=auto;exitX=0.5;exitY=1;exitDx=0;exitDy=0;exitPerimeter=0;entryX=0.417;entryY=0.416;entryDx=0;entryDy=0;entryPerimeter=0;labelBackgroundColor=none;html=1;" parent="1" source="yEV34xs6mezx_GCeeAao-15" target="yEV34xs6mezx_GCeeAao-16" edge="1">
          <mxGeometry relative="1" as="geometry" />
        </mxCell>
        <mxCell id="yEV34xs6mezx_GCeeAao-19" value="" style="edgeStyle=orthogonalEdgeStyle;rounded=0;orthogonalLoop=1;jettySize=auto;entryX=0.417;entryY=0.352;entryDx=0;entryDy=0;entryPerimeter=0;labelBackgroundColor=none;html=1;" parent="1" source="yEV34xs6mezx_GCeeAao-14" target="yEV34xs6mezx_GCeeAao-16" edge="1">
          <mxGeometry relative="1" as="geometry" />
        </mxCell>
        <mxCell id="yEV34xs6mezx_GCeeAao-34" value="" style="edgeStyle=orthogonalEdgeStyle;rounded=0;orthogonalLoop=1;jettySize=auto;labelBackgroundColor=none;html=1;" parent="1" source="yEV34xs6mezx_GCeeAao-20" target="yEV34xs6mezx_GCeeAao-33" edge="1">
          <mxGeometry relative="1" as="geometry">
            <Array as="points">
              <mxPoint x="1042" y="330" />
              <mxPoint x="819" y="330" />
            </Array>
          </mxGeometry>
        </mxCell>
        <mxCell id="yEV34xs6mezx_GCeeAao-42" value="" style="edgeStyle=orthogonalEdgeStyle;rounded=0;orthogonalLoop=1;jettySize=auto;exitX=0.492;exitY=0.712;exitDx=0;exitDy=0;exitPerimeter=0;labelBackgroundColor=none;html=1;" parent="1" source="yEV34xs6mezx_GCeeAao-24" edge="1">
          <mxGeometry relative="1" as="geometry">
            <mxPoint x="590" y="490" as="targetPoint" />
            <Array as="points">
              <mxPoint x="1039" y="330" />
              <mxPoint x="590" y="330" />
            </Array>
          </mxGeometry>
        </mxCell>
        <mxCell id="yEV34xs6mezx_GCeeAao-21" value="Factory 3" style="text;strokeColor=none;fillColor=none;align=center;verticalAlign=middle;whiteSpace=wrap;rounded=0;fontStyle=1;labelBackgroundColor=none;html=1;" parent="1" vertex="1">
          <mxGeometry x="1012" y="22" width="60" height="20" as="geometry" />
        </mxCell>
        <mxCell id="yEV34xs6mezx_GCeeAao-22" value="&lt;font style=&quot;color: rgb(0, 0, 0);&quot;&gt;Client&lt;/font&gt;" style="outlineConnect=0;dashed=0;verticalLabelPosition=bottom;verticalAlign=top;align=center;shape=mxgraph.aws3.management_console;fillColor=#0050ef;labelBackgroundColor=none;strokeColor=#001DBC;fontColor=#ffffff;html=1;whiteSpace=wrap;" parent="1" vertex="1">
          <mxGeometry x="924" y="62" width="63" height="63" as="geometry" />
        </mxCell>
        <mxCell id="yEV34xs6mezx_GCeeAao-23" value="&lt;font style=&quot;color: rgb(0, 0, 0);&quot;&gt;Client&lt;/font&gt;" style="outlineConnect=0;dashed=0;verticalLabelPosition=bottom;verticalAlign=top;align=center;shape=mxgraph.aws3.management_console;fillColor=#0050ef;labelBackgroundColor=none;strokeColor=#001DBC;fontColor=#ffffff;html=1;whiteSpace=wrap;" parent="1" vertex="1">
          <mxGeometry x="1072" y="62" width="63" height="63" as="geometry" />
        </mxCell>
        <mxCell id="yEV34xs6mezx_GCeeAao-24" value="" style="points=[];aspect=fixed;align=center;shadow=0;dashed=0;fillColor=light-dark(#f0a400, #6db2ff);strokeColor=light-dark(#f0a400, #b2cbff);shape=mxgraph.alibaba_cloud.apigateway;fontColor=#ffffff;labelBackgroundColor=none;html=1;whiteSpace=wrap;" parent="1" vertex="1">
          <mxGeometry x="1014" y="182" width="51.8" height="50" as="geometry" />
        </mxCell>
        <mxCell id="yEV34xs6mezx_GCeeAao-25" value="Factory Gateway" style="text;align=center;verticalAlign=middle;resizable=0;points=[];autosize=1;strokeColor=none;fillColor=none;labelBackgroundColor=none;html=1;" parent="1" vertex="1">
          <mxGeometry x="987" y="232" width="110" height="30" as="geometry" />
        </mxCell>
        <mxCell id="yEV34xs6mezx_GCeeAao-26" value="" style="edgeStyle=orthogonalEdgeStyle;rounded=0;orthogonalLoop=1;jettySize=auto;exitX=0.5;exitY=1;exitDx=0;exitDy=0;exitPerimeter=0;entryX=0.417;entryY=0.416;entryDx=0;entryDy=0;entryPerimeter=0;labelBackgroundColor=none;html=1;" parent="1" source="yEV34xs6mezx_GCeeAao-23" target="yEV34xs6mezx_GCeeAao-24" edge="1">
          <mxGeometry relative="1" as="geometry" />
        </mxCell>
        <mxCell id="yEV34xs6mezx_GCeeAao-27" value="" style="edgeStyle=orthogonalEdgeStyle;rounded=0;orthogonalLoop=1;jettySize=auto;entryX=0.417;entryY=0.352;entryDx=0;entryDy=0;entryPerimeter=0;labelBackgroundColor=none;html=1;" parent="1" source="yEV34xs6mezx_GCeeAao-22" target="yEV34xs6mezx_GCeeAao-24" edge="1">
          <mxGeometry relative="1" as="geometry" />
        </mxCell>
        <mxCell id="yEV34xs6mezx_GCeeAao-51" value="" style="edgeStyle=orthogonalEdgeStyle;rounded=0;orthogonalLoop=1;jettySize=auto;exitX=1;exitY=0.5;exitDx=0;exitDy=0;labelBackgroundColor=none;html=1;" parent="1" source="yEV34xs6mezx_GCeeAao-29" target="yEV34xs6mezx_GCeeAao-33" edge="1">
          <mxGeometry relative="1" as="geometry">
            <Array as="points">
              <mxPoint x="625" y="516" />
            </Array>
          </mxGeometry>
        </mxCell>
        <mxCell id="yEV34xs6mezx_GCeeAao-59" value="" style="edgeStyle=orthogonalEdgeStyle;rounded=0;orthogonalLoop=1;jettySize=auto;labelBackgroundColor=none;html=1;" parent="1" source="yEV34xs6mezx_GCeeAao-29" target="yEV34xs6mezx_GCeeAao-56" edge="1">
          <mxGeometry relative="1" as="geometry" />
        </mxCell>
        <mxCell id="yEV34xs6mezx_GCeeAao-60" value="" style="edgeStyle=orthogonalEdgeStyle;rounded=0;orthogonalLoop=1;jettySize=auto;labelBackgroundColor=none;html=1;" parent="1" source="yEV34xs6mezx_GCeeAao-29" target="yEV34xs6mezx_GCeeAao-55" edge="1">
          <mxGeometry relative="1" as="geometry" />
        </mxCell>
        <mxCell id="yEV34xs6mezx_GCeeAao-29" value="IoT Core" style="editableCssRules=.*;shape=image;verticalLabelPosition=bottom;labelBackgroundColor=none;verticalAlign=top;aspect=fixed;imageAspect=0;image=data:image/svg+xml,PHN2ZyB4bWxucz0iaHR0cDovL3d3dy53My5vcmcvMjAwMC9zdmciIHhtbG5zOnY9Imh0dHBzOi8vdmVjdGEuaW8vbmFubyIgd2lkdGg9IjE5LjcwNjUzMTUyNDY1ODIwMyIgaGVpZ2h0PSIxOS45ODM4MjE4Njg4OTY0ODQiIGZpbGwtcnVsZT0iZXZlbm9kZCIgdmlld0JveD0iLTAuMDAwMjA5NTQ2OTY4MTA4MDQzMDcgMC4wMDAxNzcyNDA4Mjg2MzQyMzk3MyAxOS43MDY1MzE1MjQ2NTgyMDMgMTkuOTgzODIxODY4ODk2NDg0Ij4mI3hhOwk8c3R5bGUgdHlwZT0idGV4dC9jc3MiPiYjeGE7CS5zdDB7ZmlsbDojNDI4NWY0O30mI3hhOwkuc3Qxe2ZpbGw6IzY2OWRmNjt9JiN4YTsJPC9zdHlsZT4mI3hhOwk8cGF0aCBjbGFzcz0ic3QwIiBkPSJNMTAuMzQ1IDEwLjM5NnYtNC40M2gwYTEuMTQgMS4xNCAwIDAgMC0uNS0yLjE2NCAxLjE0IDEuMTQgMCAwIDAtLjUgMi4xNjR2NC40MmgtNC4yN3YtMi44MmExLjE0IDEuMTQgMCAwIDAtLjUzLTIuMTUgMS4xNCAxLjE0IDAgMCAwLS41MiAyLjE1djIuODNoLS4yMmEzLjgyIDMuODIgMCAwIDEtMi43MjItNi40ODUgMy44MiAzLjgyIDAgMCAxIDQuMTIyLS44OTUgNS4yMiA1LjIyIDAgMCAxIDkuNDQtLjA1IDQgNCAwIDAgMSAxLjIzLS4yaDBhMy44MyAzLjgzIDAgMSAxIDAgNy42NmgtLjI1di0yLjg2YTEuMTQgMS4xNCAwIDAgMC0uNTMtMi4xNDkgMS4xNCAxLjE0IDAgMCAwLS41MyAyLjE0OXYyLjgzeiIvPiYjeGE7CTxwYXRoIGNsYXNzPSJzdDEiIGQ9Ik01LjA3NSAxMy4zNTZhMiAyIDAgMCAxIDEuNTQgMiAyLjA3IDIuMDcgMCAwIDEtNC4xMS4zNTQgMi4wNyAyLjA3IDAgMCAxIDEuNTItMi4zNTR2LTIuOTZoMXptLS41MyAzYTEgMSAwIDEgMCAwLTIgMSAxIDAgMSAwIDAgMnptMTEuMDgtM2EyLjA3IDIuMDcgMCAwIDEtLjUzIDQuMDcxIDIuMDcgMi4wNyAwIDAgMS0uNTMtNC4wNzF2LTIuOTVoMS4wNnptLS41MyAzYTEgMSAwIDAgMCAuMzktMS45NCAxIDEgMCAwIDAtMS4yNjggMS4zMDcgMSAxIDAgMCAwIC44NzguNjMzem0tNC43NS0uNDNoMGEyLjA2IDIuMDYgMCAwIDEtLjUgNC4wNTggMi4wNiAyLjA2IDAgMCAxLS41LTQuMDU4di01LjVoMS4wNnptLS41NCAzYTEgMSAwIDAgMCAuNTUtMS44MzIgMSAxIDAgMCAwLTEuNDggMS4yMTIgMSAxIDAgMCAwIC45My42eiIvPiYjeGE7PC9zdmc+;html=1;whiteSpace=wrap;" parent="1" vertex="1">
          <mxGeometry x="555" y="480" width="70" height="70" as="geometry" />
        </mxCell>
        <mxCell id="yEV34xs6mezx_GCeeAao-49" value="" style="edgeStyle=orthogonalEdgeStyle;rounded=0;orthogonalLoop=1;jettySize=auto;exitX=0;exitY=0.5;exitDx=0;exitDy=0;exitPerimeter=0;entryX=1;entryY=0.5;entryDx=0;entryDy=0;labelBackgroundColor=none;html=1;" parent="1" edge="1">
          <mxGeometry relative="1" as="geometry">
            <mxPoint x="790" y="510.75" as="sourcePoint" />
            <mxPoint x="625" y="510" as="targetPoint" />
          </mxGeometry>
        </mxCell>
        <mxCell id="yEV34xs6mezx_GCeeAao-33" value="Amazon Greengrass&lt;br&gt;&lt;br&gt;" style="outlineConnect=0;dashed=0;verticalLabelPosition=bottom;verticalAlign=top;align=center;shape=mxgraph.aws3.greengrass;fillColor=light-dark(#7aa116, #467fb2);gradientColor=none;labelBackgroundColor=none;html=1;whiteSpace=wrap;" parent="1" vertex="1">
          <mxGeometry x="790" y="475" width="61.5" height="81.5" as="geometry" />
        </mxCell>
        <mxCell id="iy7uY4TQuZhiIkR0IRl_-5" value="" style="edgeStyle=orthogonalEdgeStyle;rounded=0;orthogonalLoop=1;jettySize=auto;labelBackgroundColor=none;html=1;" parent="1" source="yEV34xs6mezx_GCeeAao-45" target="yEV34xs6mezx_GCeeAao-65" edge="1">
          <mxGeometry relative="1" as="geometry">
            <Array as="points">
              <mxPoint x="700" y="720" />
              <mxPoint x="590" y="720" />
            </Array>
          </mxGeometry>
        </mxCell>
        <mxCell id="iy7uY4TQuZhiIkR0IRl_-6" value="" style="edgeStyle=orthogonalEdgeStyle;rounded=0;orthogonalLoop=1;jettySize=auto;labelBackgroundColor=none;html=1;" parent="1" source="yEV34xs6mezx_GCeeAao-45" target="yEV34xs6mezx_GCeeAao-67" edge="1">
          <mxGeometry relative="1" as="geometry">
            <Array as="points">
              <mxPoint x="700" y="720" />
              <mxPoint x="726" y="720" />
            </Array>
          </mxGeometry>
        </mxCell>
        <mxCell id="iy7uY4TQuZhiIkR0IRl_-7" value="" style="edgeStyle=orthogonalEdgeStyle;rounded=0;orthogonalLoop=1;jettySize=auto;labelBackgroundColor=none;html=1;" parent="1" source="yEV34xs6mezx_GCeeAao-45" target="yEV34xs6mezx_GCeeAao-68" edge="1">
          <mxGeometry relative="1" as="geometry">
            <Array as="points">
              <mxPoint x="700" y="720" />
              <mxPoint x="850" y="720" />
            </Array>
          </mxGeometry>
        </mxCell>
        <mxCell id="yEV34xs6mezx_GCeeAao-45" value="Iot Rule Engine" style="outlineConnect=0;dashed=0;verticalLabelPosition=bottom;verticalAlign=top;align=center;shape=mxgraph.aws3.rule;fillColor=#5294CF;gradientColor=none;labelBackgroundColor=none;html=1;whiteSpace=wrap;" parent="1" vertex="1">
          <mxGeometry x="680" y="560" width="40" height="69" as="geometry" />
        </mxCell>
        <mxCell id="yEV34xs6mezx_GCeeAao-52" value="" style="edgeStyle=orthogonalEdgeStyle;rounded=0;orthogonalLoop=1;jettySize=auto;exitX=0.5;exitY=1;exitDx=0;exitDy=0;entryX=0;entryY=0.5;entryDx=0;entryDy=0;entryPerimeter=0;labelBackgroundColor=none;html=1;" parent="1" source="yEV34xs6mezx_GCeeAao-29" target="yEV34xs6mezx_GCeeAao-45" edge="1">
          <mxGeometry relative="1" as="geometry">
            <Array as="points">
              <mxPoint x="630" y="550" />
              <mxPoint x="630" y="600" />
              <mxPoint x="680" y="600" />
            </Array>
          </mxGeometry>
        </mxCell>
        <mxCell id="yEV34xs6mezx_GCeeAao-54" value="Security &amp;amp; Management" style="text;strokeColor=none;fillColor=none;align=right;verticalAlign=middle;whiteSpace=wrap;rounded=0;fontStyle=1;labelBackgroundColor=none;html=1;" parent="1" vertex="1">
          <mxGeometry x="1239" y="576.5" width="210" height="20" as="geometry" />
        </mxCell>
        <mxCell id="yEV34xs6mezx_GCeeAao-55" value="&lt;font style=&quot;color: rgb(0, 0, 0);&quot;&gt;AWS IAM&lt;/font&gt;" style="outlineConnect=0;dashed=0;verticalLabelPosition=bottom;verticalAlign=top;align=center;shape=mxgraph.aws3.iam;fillColor=light-dark(#7aa116, #6db2ff);fontColor=#ffffff;strokeColor=#001DBC;labelBackgroundColor=none;html=1;whiteSpace=wrap;" parent="1" vertex="1">
          <mxGeometry x="1117" y="626.5" width="40" height="61" as="geometry" />
        </mxCell>
        <mxCell id="yEV34xs6mezx_GCeeAao-61" value="" style="edgeStyle=orthogonalEdgeStyle;rounded=0;orthogonalLoop=1;jettySize=auto;labelBackgroundColor=none;html=1;" parent="1" source="yEV34xs6mezx_GCeeAao-56" target="yEV34xs6mezx_GCeeAao-57" edge="1">
          <mxGeometry relative="1" as="geometry">
            <Array as="points">
              <mxPoint x="1280" y="716.5" />
              <mxPoint x="1224" y="716.5" />
            </Array>
          </mxGeometry>
        </mxCell>
        <mxCell id="yEV34xs6mezx_GCeeAao-62" value="" style="edgeStyle=orthogonalEdgeStyle;rounded=0;orthogonalLoop=1;jettySize=auto;labelBackgroundColor=none;html=1;" parent="1" source="yEV34xs6mezx_GCeeAao-56" target="yEV34xs6mezx_GCeeAao-58" edge="1">
          <mxGeometry relative="1" as="geometry">
            <Array as="points">
              <mxPoint x="1280" y="716.5" />
              <mxPoint x="1365" y="716.5" />
            </Array>
          </mxGeometry>
        </mxCell>
        <mxCell id="yEV34xs6mezx_GCeeAao-56" value="&lt;div&gt;&lt;br&gt;&lt;/div&gt;&lt;div&gt;&lt;br&gt;&lt;/div&gt;VPC EndPoint" style="sketch=0;outlineConnect=0;fontColor=#232F3E;gradientColor=none;fillColor=light-dark(#7aa116, #b17dff);strokeColor=none;dashed=0;verticalLabelPosition=bottom;verticalAlign=top;align=center;fontSize=12;fontStyle=0;aspect=fixed;pointerEvents=1;shape=mxgraph.aws4.endpoints;labelBackgroundColor=none;html=1;whiteSpace=wrap;" parent="1" vertex="1">
          <mxGeometry x="1249.5" y="626.5" width="61" height="61" as="geometry" />
        </mxCell>
        <mxCell id="yEV34xs6mezx_GCeeAao-57" value="&lt;font style=&quot;color: rgb(0, 0, 0);&quot;&gt;Amazon CloudWatch&lt;/font&gt;" style="outlineConnect=0;dashed=0;verticalLabelPosition=bottom;verticalAlign=top;align=center;shape=mxgraph.aws3.cloudwatch;fillColor=light-dark(#f0a400, #6db2ff);fontColor=#ffffff;strokeColor=#001DBC;labelBackgroundColor=none;html=1;whiteSpace=wrap;" parent="1" vertex="1">
          <mxGeometry x="1190" y="736.5" width="67" height="83" as="geometry" />
        </mxCell>
        <mxCell id="yEV34xs6mezx_GCeeAao-58" value="&lt;font style=&quot;color: rgb(0, 0, 0);&quot;&gt;Amazon CloudFormation&lt;/font&gt;" style="outlineConnect=0;dashed=0;verticalLabelPosition=bottom;verticalAlign=top;align=center;shape=mxgraph.aws3.cloudformation;fillColor=light-dark(#f0a400, #6db2ff);fontColor=#ffffff;strokeColor=#001DBC;labelBackgroundColor=none;html=1;whiteSpace=wrap;" parent="1" vertex="1">
          <mxGeometry x="1332" y="736.5" width="65" height="78" as="geometry" />
        </mxCell>
        <mxCell id="yEV34xs6mezx_GCeeAao-64" value="Data Storage &amp;amp; Processing" style="text;strokeColor=none;fillColor=none;align=center;verticalAlign=middle;whiteSpace=wrap;rounded=0;fontStyle=1;labelBackgroundColor=none;html=1;" parent="1" vertex="1">
          <mxGeometry x="634" y="780" width="210" height="20" as="geometry" />
        </mxCell>
        <mxCell id="iy7uY4TQuZhiIkR0IRl_-17" value="" style="edgeStyle=orthogonalEdgeStyle;rounded=0;orthogonalLoop=1;jettySize=auto;labelBackgroundColor=none;html=1;" parent="1" source="yEV34xs6mezx_GCeeAao-65" target="iy7uY4TQuZhiIkR0IRl_-10" edge="1">
          <mxGeometry relative="1" as="geometry">
            <Array as="points">
              <mxPoint x="560" y="750" />
              <mxPoint x="105" y="750" />
            </Array>
          </mxGeometry>
        </mxCell>
        <mxCell id="yEV34xs6mezx_GCeeAao-65" value="Amazon TimeStream" style="sketch=0;points=[[0,0,0],[0.25,0,0],[0.5,0,0],[0.75,0,0],[1,0,0],[0,1,0],[0.25,1,0],[0.5,1,0],[0.75,1,0],[1,1,0],[0,0.25,0],[0,0.5,0],[0,0.75,0],[1,0.25,0],[1,0.5,0],[1,0.75,0]];outlineConnect=0;fontColor=#232F3E;fillColor=light-dark(#C925D1,#2A75C6);strokeColor=#ffffff;dashed=0;verticalLabelPosition=bottom;verticalAlign=top;align=center;fontSize=12;fontStyle=0;aspect=fixed;shape=mxgraph.aws4.resourceIcon;resIcon=mxgraph.aws4.timestream;labelBackgroundColor=none;html=1;whiteSpace=wrap;" parent="1" vertex="1">
          <mxGeometry x="551" y="850" width="78" height="78" as="geometry" />
        </mxCell>
        <mxCell id="yEV34xs6mezx_GCeeAao-67" value="&lt;font style=&quot;color: rgb(0, 0, 0);&quot;&gt;Amazon IoT SiteWise&lt;br&gt;&lt;/font&gt;" style="sketch=0;points=[[0,0,0],[0.25,0,0],[0.5,0,0],[0.75,0,0],[1,0,0],[0,1,0],[0.25,1,0],[0.5,1,0],[0.75,1,0],[1,1,0],[0,0.25,0],[0,0.5,0],[0,0.75,0],[1,0.25,0],[1,0.5,0],[1,0.75,0]];outlineConnect=0;fontColor=#ffffff;fillColor=#0050EF;strokeColor=light-dark(#FFFFFF,#FFFFFF);dashed=0;verticalLabelPosition=bottom;verticalAlign=top;align=center;fontSize=12;fontStyle=0;aspect=fixed;shape=mxgraph.aws4.resourceIcon;resIcon=mxgraph.aws4.iot_sitewise;labelBackgroundColor=none;html=1;whiteSpace=wrap;" parent="1" vertex="1">
          <mxGeometry x="686" y="850" width="78" height="78" as="geometry" />
        </mxCell>
        <mxCell id="yEV34xs6mezx_GCeeAao-68" value="Lambda" style="outlineConnect=0;dashed=0;verticalLabelPosition=bottom;verticalAlign=top;align=center;shape=mxgraph.aws3.lambda_function;fillColor=#5294CF;gradientColor=none;labelBackgroundColor=none;html=1;whiteSpace=wrap;" parent="1" vertex="1">
          <mxGeometry x="820" y="858" width="60" height="63" as="geometry" />
        </mxCell>
        <mxCell id="iy7uY4TQuZhiIkR0IRl_-9" value="Analytics &amp;amp; Visulization" style="text;strokeColor=none;fillColor=none;align=center;verticalAlign=middle;whiteSpace=wrap;rounded=0;fontStyle=1;labelBackgroundColor=none;html=1;" parent="1" vertex="1">
          <mxGeometry x="141" y="839.5" width="210" height="20" as="geometry" />
        </mxCell>
        <mxCell id="iy7uY4TQuZhiIkR0IRl_-14" value="" style="edgeStyle=orthogonalEdgeStyle;rounded=0;orthogonalLoop=1;jettySize=auto;labelBackgroundColor=none;html=1;" parent="1" source="iy7uY4TQuZhiIkR0IRl_-10" target="iy7uY4TQuZhiIkR0IRl_-11" edge="1">
          <mxGeometry relative="1" as="geometry" />
        </mxCell>
        <mxCell id="iy7uY4TQuZhiIkR0IRl_-15" value="" style="edgeStyle=orthogonalEdgeStyle;rounded=0;orthogonalLoop=1;jettySize=auto;labelBackgroundColor=none;html=1;" parent="1" source="iy7uY4TQuZhiIkR0IRl_-10" target="iy7uY4TQuZhiIkR0IRl_-12" edge="1">
          <mxGeometry relative="1" as="geometry" />
        </mxCell>
        <mxCell id="iy7uY4TQuZhiIkR0IRl_-16" value="" style="edgeStyle=orthogonalEdgeStyle;rounded=0;orthogonalLoop=1;jettySize=auto;labelBackgroundColor=none;html=1;" parent="1" source="iy7uY4TQuZhiIkR0IRl_-10" target="iy7uY4TQuZhiIkR0IRl_-13" edge="1">
          <mxGeometry relative="1" as="geometry" />
        </mxCell>
        <mxCell id="iy7uY4TQuZhiIkR0IRl_-10" value="AWS IoT Analytics" style="sketch=0;outlineConnect=0;fontColor=#232F3E;gradientColor=none;strokeColor=#ffffff;fillColor=light-dark(#4285f4, #bdc7d4);dashed=0;verticalLabelPosition=middle;verticalAlign=bottom;align=center;whiteSpace=wrap;fontSize=10;fontStyle=1;spacing=3;shape=mxgraph.aws4.productIcon;prIcon=mxgraph.aws4.iot_analytics;labelBackgroundColor=none;html=1;" parent="1" vertex="1">
          <mxGeometry x="65" y="859.5" width="80" height="110" as="geometry" />
        </mxCell>
        <mxCell id="iy7uY4TQuZhiIkR0IRl_-11" value="Amazon QuickSight" style="sketch=0;outlineConnect=0;fontColor=#232F3E;gradientColor=none;strokeColor=#ffffff;fillColor=light-dark(#4285f4, #bdc7d4);dashed=0;verticalLabelPosition=middle;verticalAlign=bottom;align=center;whiteSpace=wrap;fontSize=10;fontStyle=1;spacing=3;shape=mxgraph.aws4.productIcon;prIcon=mxgraph.aws4.quicksight;labelBackgroundColor=none;html=1;" parent="1" vertex="1">
          <mxGeometry x="65" y="1009.5" width="80" height="110" as="geometry" />
        </mxCell>
        <mxCell id="iy7uY4TQuZhiIkR0IRl_-12" value="AWS IoT Events" style="sketch=0;points=[[0,0,0],[0.25,0,0],[0.5,0,0],[0.75,0,0],[1,0,0],[0,1,0],[0.25,1,0],[0.5,1,0],[0.75,1,0],[1,1,0],[0,0.25,0],[0,0.5,0],[0,0.75,0],[1,0.25,0],[1,0.5,0],[1,0.75,0]];outlineConnect=0;fontColor=#232F3E;fillColor=light-dark(#7AA116, #2c78c9);strokeColor=#ffffff;dashed=0;verticalLabelPosition=bottom;verticalAlign=top;align=center;fontSize=12;fontStyle=0;aspect=fixed;shape=mxgraph.aws4.resourceIcon;resIcon=mxgraph.aws4.iot_events;labelBackgroundColor=none;html=1;whiteSpace=wrap;" parent="1" vertex="1">
          <mxGeometry x="207" y="1009.5" width="78" height="78" as="geometry" />
        </mxCell>
        <mxCell id="iy7uY4TQuZhiIkR0IRl_-13" value="Amazon SageMaker" style="sketch=0;outlineConnect=0;fontColor=#232F3E;gradientColor=none;strokeColor=#ffffff;fillColor=light-dark(#7aa116, #bdc7d4);dashed=0;verticalLabelPosition=middle;verticalAlign=bottom;align=center;whiteSpace=wrap;fontSize=10;fontStyle=1;spacing=3;shape=mxgraph.aws4.productIcon;prIcon=mxgraph.aws4.sagemaker;labelBackgroundColor=none;html=1;" parent="1" vertex="1">
          <mxGeometry x="336" y="1009.5" width="80" height="110" as="geometry" />
        </mxCell>
        <mxCell id="iy7uY4TQuZhiIkR0IRl_-19" value="AWS" style="verticalLabelPosition=bottom;align=center;labelBackgroundColor=none;verticalAlign=top;strokeWidth=2;strokeColor=#0080F0;shadow=0;dashed=0;shape=mxgraph.ios7.icons.cloud;html=1;whiteSpace=wrap;" parent="1" vertex="1">
          <mxGeometry x="-40" y="405" width="90" height="50" as="geometry" />
        </mxCell>
      </root>
    </mxGraphModel>
  </diagram>
</mxfile>
